<svg width="5" height="13" viewBox="0 0 5 13" fill="none" xmlns="http://www.w3.org/2000/svg">
<path d="M4.3125 1.10938C4.3125 1.20312 4.29688 1.31771 4.26562 1.45312C4.24479 1.58854 4.22396 1.72396 4.20312 1.85938C4.18229 1.99479 4.17708 2.11979 4.1875 2.23438C4.19792 2.33854 4.24479 2.40625 4.32812 2.4375C4.14062 2.98958 4.01042 3.45312 3.9375 3.82812C3.875 4.20312 3.81771 4.5625 3.76562 4.90625C3.72396 5.23958 3.66667 5.59375 3.59375 5.96875C3.52083 6.34375 3.39062 6.80208 3.20312 7.34375C3.08854 7.67708 2.94792 7.91146 2.78125 8.04688C2.61458 8.17188 2.4375 8.23438 2.25 8.23438C2.0625 8.23438 1.86979 8.18229 1.67188 8.07812C1.47396 7.97396 1.29167 7.85938 1.125 7.73438C1.09375 7.53646 1.08854 7.29688 1.10938 7.01562C1.14062 6.72396 1.17708 6.42188 1.21875 6.10938C1.26042 5.79688 1.30208 5.5 1.34375 5.21875C1.38542 4.92708 1.41667 4.68229 1.4375 4.48438C1.54167 4.36979 1.61458 4.27604 1.65625 4.20312C1.69792 4.13021 1.72396 4.05208 1.73438 3.96875C1.75521 3.88542 1.77083 3.78125 1.78125 3.65625C1.79167 3.53125 1.81771 3.35417 1.85938 3.125C1.88021 3.01042 1.86979 2.91146 1.82812 2.82812C1.79688 2.73438 1.79167 2.64583 1.8125 2.5625C1.83333 2.52083 1.86458 2.48958 1.90625 2.46875C1.95833 2.44792 1.98958 2.41146 2 2.35938C2.04167 2.22396 2.05208 2.11979 2.03125 2.04688C2.01042 1.96354 2.02604 1.86458 2.07812 1.75C2.13021 1.66667 2.19271 1.53646 2.26562 1.35938C2.34896 1.17188 2.38021 0.979167 2.35938 0.78125C2.45312 0.708333 2.54167 0.625 2.625 0.53125C2.70833 0.4375 2.79167 0.354167 2.875 0.28125C2.96875 0.197917 3.06771 0.130208 3.17188 0.078125C3.28646 0.0260417 3.42188 0 3.57812 0C3.66146 0.114583 3.72396 0.223958 3.76562 0.328125C3.80729 0.432292 3.84375 0.53125 3.875 0.625C3.91667 0.71875 3.96875 0.807292 4.03125 0.890625C4.09375 0.973958 4.1875 1.04688 4.3125 1.10938ZM2.76562 10C2.78646 10.0833 2.80208 10.1615 2.8125 10.2344C2.82292 10.3073 2.83333 10.3854 2.84375 10.4688C2.78125 10.6875 2.71354 10.8854 2.64062 11.0625C2.60938 11.1354 2.58854 11.1823 2.57812 11.2031C2.56771 11.224 2.5625 11.2396 2.5625 11.25C2.5625 11.2604 2.56771 11.276 2.57812 11.2969C2.58854 11.3073 2.59375 11.349 2.59375 11.4219L2.51562 11.6094C2.46354 11.6823 2.40104 11.7396 2.32812 11.7812C2.26562 11.8229 2.19792 11.8594 2.125 11.8906C2.09375 11.9115 2.05729 11.9271 2.01562 11.9375C1.98438 11.9583 1.95833 11.9792 1.9375 12L1.89062 12.1875L1.67188 12.2188C1.50521 12.2604 1.35417 12.2812 1.21875 12.2812H1.04688C0.921875 12.1667 0.822917 12.0781 0.75 12.0156C0.677083 11.9531 0.59375 11.8958 0.5 11.8438C0.385417 11.6458 0.317708 11.474 0.296875 11.3281C0.276042 11.1927 0.25 11.1042 0.21875 11.0625L0 10.8438L0.1875 10.7031L0 10.4062C0.125 10.3125 0.21875 10.2448 0.28125 10.2031C0.34375 10.1615 0.395833 10.1198 0.4375 10.0781C0.489583 10.026 0.541667 9.96354 0.59375 9.89062C0.645833 9.81771 0.729167 9.69792 0.84375 9.53125L0.984375 9.32812L1.17188 9.4375C1.22396 9.46875 1.31771 9.5 1.45312 9.53125C1.59896 9.55208 1.72396 9.57292 1.82812 9.59375C1.99479 9.64583 2.15625 9.6875 2.3125 9.71875C2.47917 9.73958 2.60938 9.79167 2.70312 9.875L2.76562 10Z" fill="black"/>
</svg>
