<svg width="10" height="13" viewBox="0 0 10 13" fill="none" xmlns="http://www.w3.org/2000/svg">
<path d="M8.64583 0.984375C8.71875 1.06771 8.78125 1.15625 8.83333 1.25C8.88542 1.33333 8.96354 1.39583 9.06771 1.4375C9.01562 1.69792 9 1.94792 9.02083 2.1875C9.04167 2.41667 9.05729 2.66667 9.06771 2.9375C8.92187 3.72917 8.59896 4.36458 8.09896 4.84375C7.59896 5.3125 7.02083 5.63542 6.36458 5.8125C6.36458 5.91667 6.33333 5.98958 6.27083 6.03125C6.0625 6.0625 5.90625 6.11458 5.80208 6.1875C5.69792 6.26042 5.59896 6.33854 5.50521 6.42188C5.42187 6.50521 5.31771 6.58854 5.19271 6.67188C5.07812 6.74479 4.89583 6.80208 4.64583 6.84375C4.59375 6.95833 4.52083 7.03125 4.42708 7.0625C4.34375 7.09375 4.25521 7.11979 4.16146 7.14062C4.07813 7.15104 3.99479 7.17708 3.91146 7.21875C3.82812 7.25 3.76562 7.33333 3.72396 7.46875L2.83333 8.29688C2.58333 8.23438 2.36458 8.20833 2.17708 8.21875C1.98958 8.21875 1.83333 8.20833 1.70833 8.1875C1.58333 8.16667 1.48438 8.10417 1.41146 8C1.34896 7.89583 1.30729 7.69792 1.28646 7.40625C1.29688 7.30208 1.33333 7.23438 1.39583 7.20312C1.46875 7.16146 1.51563 7.09896 1.53646 7.01562C1.53646 6.78646 1.56771 6.61979 1.63021 6.51562C1.70313 6.40104 1.79167 6.30729 1.89583 6.23438C2 6.16146 2.10937 6.08333 2.22396 6C2.33854 5.90625 2.4375 5.76562 2.52083 5.57812C2.6875 5.50521 2.86979 5.39062 3.06771 5.23438C3.27604 5.06771 3.46354 4.90625 3.63021 4.75C3.89062 4.61458 4.10938 4.49479 4.28646 4.39062C4.47396 4.28646 4.64583 4.18229 4.80208 4.07812C4.95833 3.97396 5.11458 3.85938 5.27083 3.73438C5.42708 3.60938 5.61458 3.45312 5.83333 3.26562C5.78125 3.13021 5.68229 3.05729 5.53646 3.04688C5.40104 3.02604 5.24479 3.02604 5.06771 3.04688C4.76562 2.95312 4.46875 2.89583 4.17708 2.875C3.89583 2.84375 3.5625 2.81771 3.17708 2.79688C3.03125 2.80729 2.92187 2.82292 2.84896 2.84375C2.78646 2.85417 2.6875 2.84896 2.55208 2.82812C2.48958 2.88021 2.41667 2.92188 2.33333 2.95312C2.26042 2.98438 2.17708 3.01562 2.08333 3.04688C2 3.06771 1.91146 3.09375 1.81771 3.125C1.73438 3.14583 1.65625 3.17708 1.58333 3.21875C1.375 3.16667 1.20833 3.06771 1.08333 2.92188C0.958333 2.77604 0.807292 2.66146 0.630208 2.57812C0.609375 2.50521 0.625 2.45833 0.677083 2.4375C0.729167 2.41667 0.744792 2.35417 0.723958 2.25C0.619792 2.19792 0.567708 2.15625 0.567708 2.125C0.578125 2.09375 0.546875 2.05208 0.473958 2C0.515625 1.83333 0.572917 1.69271 0.645833 1.57812C0.729167 1.45312 0.817708 1.33854 0.911458 1.23438C1.00521 1.11979 1.09896 1.01042 1.19271 0.90625C1.28646 0.802083 1.36979 0.682292 1.44271 0.546875C1.60938 0.505208 1.75 0.442708 1.86458 0.359375C1.98958 0.265625 2.10937 0.166667 2.22396 0.0625C2.78646 0 3.33333 -0.015625 3.86458 0.015625C4.39583 0.0364583 4.92187 0.0885417 5.44271 0.171875C5.97396 0.255208 6.5 0.369792 7.02083 0.515625C7.55208 0.661458 8.09375 0.817708 8.64583 0.984375ZM2.64583 9.96875C2.625 10.125 2.60417 10.2396 2.58333 10.3125C2.57292 10.3854 2.56771 10.4531 2.56771 10.5156C2.56771 10.5781 2.57292 10.6562 2.58333 10.75C2.60417 10.8438 2.63542 10.9896 2.67708 11.1875L2.72396 11.4375L2.50521 11.4844C2.45312 11.4948 2.36458 11.5417 2.23958 11.625C2.125 11.7083 2.02083 11.776 1.92708 11.8281C1.78125 11.9115 1.64063 12 1.50521 12.0938C1.38021 12.1979 1.25 12.25 1.11458 12.25C0.958333 12.1667 0.848958 12.1042 0.786458 12.0625C0.723958 12.0208 0.661458 11.9792 0.598958 11.9375C0.546875 11.8438 0.5 11.75 0.458333 11.6562C0.416667 11.5625 0.369792 11.4688 0.317708 11.375C0.286458 11.3021 0.265625 11.2552 0.255208 11.2344C0.244792 11.2135 0.234375 11.1979 0.223958 11.1875C0.223958 11.1771 0.213542 11.1719 0.192708 11.1719C0.182292 11.1615 0.151042 11.1302 0.0989583 11.0781L0.00520833 10.8906C-0.00520833 10.8073 0 10.7292 0.0208333 10.6562C0.0520833 10.5729 0.078125 10.4948 0.0989583 10.4219C0.109375 10.3906 0.119792 10.3542 0.130208 10.3125C0.151042 10.2604 0.161458 10.224 0.161458 10.2031L0.0677083 10.0469L0.192708 9.875C0.255208 9.76042 0.302083 9.68229 0.333333 9.64062C0.364583 9.59896 0.40625 9.55208 0.458333 9.5L0.598958 9.39062C0.880208 9.38021 1.10938 9.35417 1.28646 9.3125C1.46354 9.34375 1.57813 9.38021 1.63021 9.42188C1.68229 9.45312 1.73438 9.48958 1.78646 9.53125C1.90104 9.61458 1.98437 9.65625 2.03646 9.65625H2.34896L2.31771 9.89062L2.64583 9.96875Z" fill="black"/>
</svg>
